<svg width="339" height="317" viewBox="0 0 339 317" fill="none" xmlns="http://www.w3.org/2000/svg">
<g id="Frame 1" clip-path="url(#clip0_0_1)">
<g id="HeroImg" clip-path="url(#clip1_0_1)">
<g id="Clip path group">
<mask id="mask0_0_1" style="mask-type:luminance" maskUnits="userSpaceOnUse" x="0" y="-12" width="339" height="329">
<g id="clip0_1_3">
<path id="Vector" d="M338.614 -12H0V317H338.614V-12Z" fill="white"/>
</g>
</mask>
<g mask="url(#mask0_0_1)">
<g id="imagen 1 1">
<g id="imagen 1">
<g id="imagen">
<g id="hombre">
<g id="Vector_5" style="mix-blend-mode:multiply">
<g id="Vector_6" style="mix-blend-mode:multiply">
<g id="Vector_2" style="mix-blend-mode:multiply">
<path id="Vector_3" d="M67.6145 245.385L69.6461 268.761C69.6461 268.761 63.3902 273.744 58.5819 273.744C58.5819 273.744 57.0836 264.088 67.6145 245.385Z" fill="#4B81EE"/>
</g>
</g>
</g>
<path id="Vector_6_2" d="M256.976 309.919C249.166 310.513 241.309 310.098 233.612 308.685C226.472 307.204 219.559 304.838 213.041 301.644L211.432 291.824C211.432 291.824 223.216 278.77 237.1 284.75C250.983 290.73 256.976 309.919 256.976 309.919Z" fill="#4B81EE"/>
<path id="Vector_7" d="M145.995 116.663C131.333 118.918 124.18 130.646 123.867 136.93C123.553 143.214 128.565 167.305 130.275 173.778C131.985 180.251 144.497 186.995 148.899 188.04C153.099 188.901 157.476 188.347 161.308 186.47C164.94 184.825 173.6 177.611 175.42 171.236C177.241 164.862 177.774 135.261 175.42 127.882C173.067 120.505 158.015 114.805 145.995 116.663Z" fill="url(#paint0_linear_0_1)"/>
<path id="Vector_8" d="M141.085 184.52L141.83 212.032C141.83 212.032 145.055 230.662 155.087 231.279C167.649 232.101 169.097 210.461 169.097 210.461L167.124 182.389C167.124 182.389 159.836 188.468 153.182 188.459C146.529 188.452 141.085 184.52 141.085 184.52Z" fill="url(#paint1_linear_0_1)"/>
<path id="Vector_9" style="mix-blend-mode:multiply" d="M125.848 136.93C125.848 136.93 128.776 124.518 145.945 123.556C163.112 122.594 169.791 128.137 172.06 132.094C174.328 136.05 177.19 142.844 177.19 142.844L176.395 123.927L165.584 118.992C165.584 118.992 142.914 116.976 134.677 120.899C126.44 124.823 125.661 130.293 125.848 136.93Z" fill="url(#paint2_linear_0_1)"/>
<path id="Vector_10" d="M176.97 149.276C177.726 148.545 178.625 147.967 179.613 147.576C180.601 147.185 181.659 146.988 182.726 146.998C182.726 146.998 185.131 148.922 183.572 153.824C182.235 158.15 178.849 163.801 178.206 165.207C178.005 165.623 177.712 165.991 177.347 166.284C176.983 166.577 176.556 166.788 176.098 166.902C176.098 166.902 177.02 155.165 176.97 149.276Z" fill="url(#paint3_linear_0_1)"/>
<path id="Vector_11" d="M125.848 152.986C125.072 152.416 124.127 152.107 123.156 152.107C122.184 152.107 121.238 152.416 120.464 152.986C121.024 156.004 121.927 158.953 123.156 161.778C125.272 166.762 126.389 170.184 129.36 170.151L125.848 152.986Z" fill="url(#paint4_linear_0_1)"/>
<path id="Vector_12" style="mix-blend-mode:multiply" d="M176.978 154.762C176.978 154.762 180.466 151.184 182.286 150.831C184.106 150.476 182.802 155.527 181.684 158.159C180.568 160.791 180.441 161.037 180.441 161.037C180.441 161.037 182.692 154.646 182.006 153.208C181.321 151.768 180.17 152.385 180.127 152.969C180.084 153.553 181.321 156.67 179.602 159.746C177.884 162.823 177.672 163.604 177.198 162.008C176.724 160.413 178.197 157.805 178.239 156.25C178.282 154.696 176.978 154.762 176.978 154.762Z" fill="url(#paint5_linear_0_1)"/>
<path id="Vector_13" style="mix-blend-mode:multiply" d="M126.796 157.435C126.796 157.435 123.867 155.263 122.749 155.84C121.632 156.415 123.012 161.736 125.517 166.046C125.517 166.046 122.927 160.124 123.824 158.718C124.722 157.311 126.805 159.755 125.839 159.862C122.935 160.191 124.467 164.229 126.77 165.841C129.073 167.453 126.406 164.591 125.974 162.049C125.543 159.507 127.101 159.581 127.101 159.581L126.796 157.435Z" fill="url(#paint6_linear_0_1)"/>
<path id="Vector_14" d="M136.31 118.16C136.31 118.16 141.771 104.631 154.088 102.426C154.088 102.426 149.534 103.841 144.488 108.636C142.795 110.281 138.909 116.31 138.909 116.31C138.909 116.31 151.819 102.945 160.403 103.644C168.987 104.342 169.224 116.508 173.152 118.531C175.585 119.902 177.376 122.137 178.146 124.766C178.146 124.766 181.575 128.812 181.355 133.072C181.135 137.333 176.944 152.089 176.944 152.089C176.944 152.089 178.045 138.377 174.193 132.867C174.193 132.867 172.907 125.308 167.378 122.273C161.042 122.726 154.674 122.547 148.374 121.739C136.819 120.415 133.052 123.047 133.052 123.047C133.052 123.047 125.915 128.581 125.992 135.442C125.992 135.442 123.299 140.541 126.101 154.228C126.101 154.228 119.659 140.245 119.769 134.529C119.879 128.812 125.915 123.202 125.915 123.202C125.915 123.202 120.912 125.818 118.051 129.281C118.051 129.281 114.089 122.141 132.73 120.398C134.176 120.129 135.459 119.328 136.31 118.16Z" fill="url(#paint7_linear_0_1)"/>
<path id="Vector_15" d="M141.559 202.27C141.559 202.27 132.247 212.502 124.942 217.025C120.856 219.584 116.584 221.848 112.159 223.802C112.159 223.802 110.466 280.135 118.195 309.59H194.594C194.594 309.59 201.012 239.29 197.007 221.063C197.007 221.063 176.859 212.567 168.487 201.776L168.851 211.563C168.851 211.563 165.542 227.085 155.087 227.849C145.436 228.556 141.763 209.705 141.763 209.705L141.559 202.27Z" fill="url(#paint8_linear_0_1)"/>
<path id="Vector_16" d="M141.475 198.872L137.818 198.091C134.029 204.053 129.318 209.413 123.85 213.982C117.399 219.18 111.837 217.954 101.84 223.802C101.84 223.802 112.845 252.352 112.041 277.692C112.041 277.692 113.793 294.142 116.519 309.59L198.353 309.128C198.353 309.128 203.67 289.388 203.991 270.471C203.991 270.471 208.224 234.593 217.087 221.047C205.38 215.602 196.719 215.914 186.772 211.399C176.826 206.883 170.087 195.607 170.087 195.607L168.089 196.512L168.521 201.759C168.521 201.759 175.293 209.219 178.113 216.276C181.499 224.904 171.696 309.573 171.696 309.573L140.577 309.112C140.577 309.112 132.4 224.954 133.517 216.992C134.635 209.031 141.593 202.236 141.593 202.236L141.475 198.872Z" fill="url(#paint9_linear_0_1)"/>
<path id="Vector_17" d="M101.806 223.802V233.434L86.4922 258.011C86.4922 258.011 82.8859 247.647 82.7251 245.673C82.5643 243.699 82.7251 240.293 82.7251 240.293L80.3125 238.426L80.7188 241.931C80.7188 241.931 81.9971 262.97 58.582 272.478C58.582 272.478 60.275 257.623 67.6144 245.335L67.2928 243.797C67.2928 243.797 59.0645 255.312 56.6603 274.806L63.8728 278.096C63.8728 278.096 71.0937 298.313 80.558 309.803L91.1142 309.902C91.1142 309.902 106.944 296.437 114.081 275.563C114.081 275.563 117.611 250.056 101.806 223.802Z" fill="url(#paint10_linear_0_1)"/>
<path id="Vector_18" d="M99.3766 176.295C99.3766 176.295 91.3597 188.139 89.8614 192.507C88.363 196.874 89.5397 204.976 88.253 206.842C88.253 206.842 80.0247 213.801 79.0596 215.989C78.0946 218.176 79.0596 229.494 79.0596 229.494C75.8005 235.49 68.0547 237.358 68.0547 237.358C68.0547 237.358 67.3351 217.963 67.0897 217.494C66.8441 217.025 62.2644 214.204 62.2644 214.204C61.1198 211.512 60.175 208.744 59.437 205.922C58.5481 202.632 57.9217 199.423 57.4984 196.8C56.8804 193.05 56.6518 190.475 56.6518 190.475L56.0085 182.76C57.1259 177.776 60.1227 178.557 60.1227 178.557C60.4094 181.545 60.9761 184.503 61.8157 187.391L62.3575 187.045C61.7572 183.867 61.3641 180.656 61.1808 177.43C62.6791 173.227 66.37 174.371 66.37 174.371C67.2758 179.461 68.4525 184.602 68.4525 184.602C67.4367 178.022 68.1308 167.717 68.1308 167.717C69.5191 170.784 73.5318 171.253 73.5318 171.253C72.7275 174.831 73.5318 182.382 73.5318 182.382L74.3783 181.896C74.6746 178.253 75.2248 174.345 75.902 170.612C76.9043 164.58 78.3183 158.62 80.1347 152.772C81.2098 150.066 83.9865 152.221 83.9865 152.221C85.1208 157.369 85.6795 161.211 85.0869 163.949C84.1896 168.128 81.5146 169.773 81.5146 169.773C81.5146 169.773 79.5929 179.643 79.7538 181.288C79.9146 182.933 80.795 193.756 80.795 193.756C85.2055 191.42 86.4075 188.147 86.4075 188.147C86.4922 181.131 89.6159 177.315 93.6288 175.678C97.6413 174.042 99.3766 176.295 99.3766 176.295Z" fill="url(#paint11_linear_0_1)"/>
<g id="Vector_19" style="mix-blend-mode:multiply">
<g id="Vector_20" style="mix-blend-mode:multiply">
<g id="Vector_3_2" style="mix-blend-mode:multiply">
<path id="Vector_4" d="M130.03 152.385L129.716 153.396C129.716 153.396 136.107 154.984 141.652 151.422L130.03 152.385Z" fill="#FEB1C8"/>
</g>
</g>
</g>
<path id="Vector_20_2" d="M67.8515 232.39C67.8515 232.39 64.6262 235.778 64.1945 238.476C64.1945 238.476 66.277 243.518 67.5806 245.385L68.4271 266.82C68.4271 266.82 81.1251 258.011 80.6426 241.955C80.6426 241.955 79.7961 231.123 80.6426 228.087L78.8987 227.347L79.0596 229.51C79.0596 229.51 73.6588 236.14 68.0547 237.382L67.8515 232.39Z" fill="url(#paint12_linear_0_1)"/>
<path id="Vector_21" d="M217.053 221.063V229.643C217.053 229.643 245.581 273.128 254.597 300.139L256.976 309.919C256.976 309.919 240.307 286.214 227.347 287.464C214.386 288.714 213.041 296.191 213.041 296.191L214.006 300.09L213.041 301.644L210.314 289.8H207.911V287.933L203.475 279.337C203.475 279.337 201.494 239.857 217.053 221.063Z" fill="url(#paint13_linear_0_1)"/>
<path id="Vector_22" d="M153.614 134.742C153.614 134.742 154.215 130.457 156.026 129.446L153.614 134.742Z" fill="url(#paint14_linear_0_1)"/>
<g id="Vector_23" style="mix-blend-mode:multiply">
<g id="Vector_24" style="mix-blend-mode:multiply">
<g id="Vector_4_2" style="mix-blend-mode:multiply">
<path id="Vector_25" d="M157.508 149.531C161.676 150.272 165.978 149.785 169.859 148.132L169.012 147.162C169.012 147.162 166.481 149.63 157.508 149.531Z" fill="#FEB1C8"/>
</g>
</g>
</g>
<path id="Vector_24_2" style="mix-blend-mode:multiply" d="M127.727 140.656C123.333 144.012 128.142 156.818 128.142 156.818C128.142 156.818 138.782 159.023 144.632 152.385V144.275C144.632 144.275 146.325 141.693 152.386 141.89C152.386 141.89 154.571 149.753 156.111 153.256C156.111 153.256 167.065 155.962 172.839 148.955C172.839 148.955 173.312 141.174 170.646 137.44C167.98 133.706 153.614 134.791 153.614 134.791C153.614 134.791 150.228 137.44 141.424 136.815C141.424 136.765 130.58 138.517 127.727 140.656Z" fill="url(#paint15_linear_0_1)"/>
<path id="Vector_25_2" style="mix-blend-mode:multiply" d="M141.652 150.295C141.652 150.295 140.213 144.48 135.726 144.242C131.24 144.003 130.385 150.295 130.385 150.295H141.652Z" fill="url(#paint16_linear_0_1)"/>
<path id="Vector_26" style="mix-blend-mode:multiply" d="M156.704 148.132C156.704 148.132 156.585 141.364 161.233 140.196C165.88 139.028 167.878 144.399 167.878 144.399L156.704 148.132Z" fill="url(#paint17_linear_0_1)"/>
<path id="Vector_27" d="M168.691 148.141C167.816 148.609 166.856 148.905 165.863 149.012C163.825 149.365 161.762 149.569 159.692 149.622C158.083 149.622 156.873 149.539 156.746 149.234C156.264 148.066 157.703 143.477 162.173 142.606C166.642 141.734 170.138 146.973 168.691 148.141Z" fill="#FFE4EC"/>
<path id="Vector_28" d="M141.856 151.192C141.797 151.431 141.237 151.718 140.382 152.014C138.128 152.703 135.792 153.111 133.432 153.232C132.584 153.289 131.731 153.243 130.892 153.101C128.624 152.624 130.267 147.812 134.44 146.776C134.967 146.642 135.514 146.592 136.057 146.628C137.362 146.746 138.6 147.235 139.621 148.034C139.635 148.031 139.649 148.031 139.663 148.034C141.144 149.16 142.007 150.592 141.856 151.192Z" fill="#FFE4EC"/>
<g id="Vector_29" style="mix-blend-mode:multiply">
<g id="Vector_30" style="mix-blend-mode:multiply">
<g id="Vector_31" style="mix-blend-mode:multiply">
<path id="Vector_32" d="M146.562 162.814C146.562 162.814 143.354 163.02 142.389 161.852C141.423 160.684 143.109 160.15 145.775 158.159C148.441 156.169 151.15 156.785 153.631 157.805C156.111 158.825 158.126 158.956 158.405 159.845C158.685 160.733 155.281 161.778 154.359 161.736C153.436 161.695 153.072 161.424 152.149 161.967C150.976 162.554 149.65 162.785 148.34 162.633C147.743 162.511 147.121 162.574 146.562 162.814Z" fill="#FEB1C8"/>
</g>
</g>
</g>
<g id="Vector_30_2" style="mix-blend-mode:multiply">
<g id="Vector_31_2" style="mix-blend-mode:multiply">
<g id="Vector_32_2" style="mix-blend-mode:multiply">
<path id="Vector_33" d="M152.133 161.967C152.285 161.675 152.521 161.432 152.813 161.267C153.104 161.103 153.438 161.023 153.774 161.037C154.901 161.152 156.111 161.383 156.111 161.383C154.891 162.009 153.489 162.215 152.133 161.967Z" fill="#D1A1C8"/>
</g>
</g>
</g>
<g id="Vector_31_2_2" style="mix-blend-mode:multiply">
<g id="Vector_32_2_2" style="mix-blend-mode:multiply">
<g id="Vector_33_2" style="mix-blend-mode:multiply">
<path id="Vector_34" d="M148.102 162.601C147.934 162.302 147.691 162.051 147.394 161.87C147.098 161.688 146.759 161.583 146.409 161.564C145.25 161.507 144.607 162.749 144.607 162.749C145.239 162.899 145.896 162.922 146.537 162.814C147.044 162.662 147.572 162.589 148.102 162.601Z" fill="#D1A1C8"/>
</g>
</g>
</g>
<path id="Vector_32_2_2_2" style="mix-blend-mode:multiply" d="M154.122 155.099C154.122 155.099 158.532 154.663 158.354 159.845C158.281 158.713 157.827 157.635 157.062 156.778C156.298 155.921 155.265 155.33 154.122 155.099Z" fill="url(#paint18_linear_0_1)"/>
<path id="Vector_33_2_2" d="M166.625 146.743C166.627 147.569 166.361 148.375 165.863 149.046C163.825 149.398 161.762 149.602 159.692 149.654C159.196 149.2 158.822 148.633 158.607 148.005C158.392 147.376 158.341 146.705 158.458 146.052C158.576 145.4 158.859 144.786 159.281 144.266C159.704 143.746 160.253 143.337 160.878 143.073C161.504 142.81 162.188 142.703 162.867 142.761C163.546 142.818 164.201 143.038 164.77 143.402C165.34 143.766 165.808 144.262 166.132 144.845C166.456 145.427 166.624 146.08 166.625 146.743Z" fill="#7F6186"/>
<path id="Vector_34_2" d="M140.645 150.6C140.645 151.078 140.556 151.551 140.382 151.999C138.128 152.686 135.792 153.095 133.432 153.215C132.769 152.497 132.404 151.565 132.408 150.6C132.408 149.614 132.782 148.662 133.458 147.926C134.134 147.19 135.065 146.722 136.073 146.611H136.496C137.096 146.609 137.687 146.736 138.23 146.982C138.774 147.227 139.254 147.587 139.637 148.034C139.651 148.031 139.666 148.031 139.68 148.034C140.307 148.75 140.65 149.66 140.645 150.6Z" fill="#7F6186"/>
<path id="Vector_35" d="M156.704 148.132C156.704 148.132 158.05 143.247 162.562 142.802C163.801 142.7 165.044 142.958 166.133 143.544C167.222 144.13 168.105 145.017 168.673 146.092C168.673 146.092 167.548 142.087 163.696 141.881C159.844 141.676 157.415 144.909 156.704 148.132Z" fill="#6C2A51"/>
<path id="Vector_36" d="M141.5 150.033C141.5 150.033 138.664 146.199 134.575 147.112C133.43 147.344 132.377 147.892 131.544 148.69C130.711 149.489 130.132 150.503 129.877 151.611C129.877 151.611 130.267 147.417 134.211 146.249C138.546 144.941 141.5 150.033 141.5 150.033Z" fill="#6C2A51"/>
<g id="Vector_37" style="mix-blend-mode:multiply">
<g id="Vector_38" style="mix-blend-mode:multiply">
<g id="Vector_39" style="mix-blend-mode:multiply">
<path id="Vector_40" d="M140.645 169.773C140.645 169.773 143.43 170.858 151.024 170.151C155.656 169.655 159.908 167.424 162.875 163.932C162.875 163.932 157.245 171.442 152.606 171.961C147.968 172.478 146.063 171.196 143.735 170.578L140.645 169.773Z" fill="#BF7988"/>
</g>
</g>
</g>
<path id="Vector_38_2" d="M147.764 170.636C148.471 171.124 149.272 171.467 150.118 171.646C150.965 171.824 151.84 171.833 152.692 171.673C154.392 171.143 155.895 170.143 157.017 168.793C154.076 169.954 150.939 170.579 147.764 170.636Z" fill="#FFE4EC"/>
<path id="Vector_39_2" style="mix-blend-mode:multiply" d="M160.911 163.414C161.929 163.389 162.933 163.65 163.801 164.167C164.669 164.684 165.365 165.434 165.804 166.326C165.804 166.326 166.371 162.165 160.911 163.414Z" fill="url(#paint19_linear_0_1)"/>
<path id="Vector_40_2" style="mix-blend-mode:multiply" d="M149.55 173.835C152.114 174.195 154.728 173.735 157 172.528C157 172.528 155.942 176.271 153.453 176.5C150.964 176.731 149.55 173.835 149.55 173.835Z" fill="url(#paint20_linear_0_1)"/>
<path id="Vector_41" style="mix-blend-mode:multiply" d="M164.661 146.595C164.661 147.01 164.534 147.415 164.297 147.761C164.059 148.105 163.721 148.374 163.327 148.533C162.932 148.691 162.497 148.732 162.078 148.651C161.659 148.569 161.275 148.368 160.973 148.074C160.672 147.78 160.467 147.406 160.384 146.998C160.302 146.591 160.346 146.17 160.511 145.786C160.676 145.403 160.953 145.076 161.309 144.847C161.665 144.617 162.084 144.496 162.511 144.497C163.082 144.5 163.629 144.722 164.031 145.114C164.435 145.507 164.661 146.04 164.661 146.595Z" fill="url(#paint21_linear_0_1)"/>
<path id="Vector_42" style="mix-blend-mode:multiply" d="M138.681 150.295C138.681 150.711 138.554 151.117 138.317 151.462C138.079 151.807 137.741 152.075 137.347 152.234C136.952 152.393 136.517 152.434 136.098 152.352C135.679 152.271 135.294 152.07 134.993 151.776C134.692 151.482 134.487 151.107 134.405 150.7C134.322 150.293 134.366 149.871 134.531 149.488C134.695 149.104 134.973 148.777 135.329 148.548C135.685 148.319 136.104 148.197 136.531 148.199C137.101 148.2 137.648 148.422 138.052 148.816C138.455 149.209 138.681 149.741 138.681 150.295Z" fill="url(#paint22_linear_0_1)"/>
<path id="Vector_43" d="M164.28 146.158C164.28 146.158 166.21 145.27 167.455 146.709L164.28 146.158Z" fill="white"/>
<path id="Vector_44" d="M137.86 149.868C138.366 149.651 138.92 149.557 139.472 149.596C140.023 149.635 140.557 149.804 141.026 150.09L137.86 149.868Z" fill="white"/>
<g id="Vector_45" style="mix-blend-mode:multiply">
<g id="Vector_46" style="mix-blend-mode:multiply">
<g id="Vector_47" style="mix-blend-mode:multiply">
<path id="Vector_48" d="M129.716 171.525C132.4 177.578 137.419 182.973 144.632 185.128C149 186.428 159.608 185.021 164.661 182.389C167.395 180.995 169.803 179.068 171.737 176.729C173.669 174.39 175.085 171.688 175.895 168.793C175.895 168.793 176.488 173.935 167.124 182.389L167.455 194.381C167.455 194.381 157.373 201.126 152.81 202.894C148.247 204.663 141.339 193.847 141.339 193.847L141.086 184.511C141.086 184.511 132.155 180.26 129.716 171.525Z" fill="#E392AD"/>
</g>
</g>
</g>
<path id="Vector_46_2" d="M153.699 134.734C153.699 134.734 155.392 129.561 160.005 129.446L154.63 133.961C154.63 133.961 159.421 130.292 163.942 131.115C165.449 131.666 166.825 132.507 167.989 133.589C169.154 134.67 170.08 135.969 170.714 137.407C165.307 135.333 159.502 134.421 153.699 134.734Z" fill="url(#paint23_linear_0_1)"/>
<path id="Vector_47_2" d="M141.423 136.765C141.423 136.765 141.026 133.048 138.402 131.74L140.764 135.787C140.764 135.787 138.656 133.533 137.259 133.18C135.862 132.826 130.436 134.825 127.727 140.656C132.138 138.892 136.73 137.587 141.423 136.765Z" fill="url(#paint24_linear_0_1)"/>
<g id="Vector_48_2" style="mix-blend-mode:multiply">
<g id="Vector_49" style="mix-blend-mode:multiply">
<g id="Vector_50" style="mix-blend-mode:multiply">
<path id="Vector_51" d="M140.018 121.434C143.862 120.818 151.87 107.928 159.896 106.893C167.921 105.856 170.172 118.975 168.673 120.875C167.175 122.775 158.405 122.52 158.405 122.52C158.405 122.52 147.747 121.969 144.472 121.467C141.195 120.966 140.018 121.434 140.018 121.434Z" fill="#E392AD"/>
</g>
</g>
</g>
<path id="Vector_49_2" style="mix-blend-mode:multiply" d="M169.105 123.441C169.105 123.441 175.192 125.818 178.29 129.446C181.388 133.072 180.5 138.37 180.5 138.37L179.475 142.704C179.475 142.704 181.202 129.298 169.105 123.441Z" fill="url(#paint25_linear_0_1)"/>
<path id="Vector_50_2" style="mix-blend-mode:multiply" d="M132.087 123.918C132.087 123.918 118.931 130.021 121.504 142.506L122.995 146.709C122.995 146.709 120.21 132.941 132.087 123.918Z" fill="url(#paint26_linear_0_1)"/>
<path id="Vector_51_2" style="mix-blend-mode:multiply" d="M133.085 123.047C133.085 123.047 124.722 124.535 120.497 131.115C121.622 128.77 123.394 126.775 125.616 125.351C127.839 123.926 130.424 123.128 133.085 123.047Z" fill="url(#paint27_linear_0_1)"/>
<path id="Vector_52" d="M141.026 121.056C141.026 121.056 147.409 114.295 157.017 115.405C166.625 116.515 168.673 123.441 168.673 123.441C168.673 123.441 167.616 113.283 158.389 111.671C149.161 110.059 141.026 121.056 141.026 121.056Z" fill="url(#paint28_linear_0_1)"/>
<path id="Vector_53" d="M173.33 119.008C173.33 119.008 181.906 121.615 182.269 128.829C182.269 128.829 184.665 120.825 173.33 119.008Z" fill="url(#paint29_linear_0_1)"/>
<g id="Vector_54" style="mix-blend-mode:soft-light">
<g id="Vector_55" style="mix-blend-mode:soft-light">
<g id="Vector_56" style="mix-blend-mode:soft-light">
<path id="Vector_57" d="M145.318 156.243C144.471 157.526 148.29 156.028 151.092 156.243C153.894 156.456 153.631 156.801 153.741 156.243C153.851 155.683 151.65 153.092 149.17 153.479C148.35 153.614 147.573 153.934 146.905 154.415C146.235 154.894 145.692 155.521 145.318 156.243Z" fill="#E7ECFF"/>
</g>
</g>
</g>
<path id="Vector_55_2" style="mix-blend-mode:multiply" d="M148.323 162.633C147.555 162.259 146.877 161.734 146.331 161.088C145.785 160.444 145.386 159.695 145.157 158.891L143.607 159.664C144.11 160.474 144.796 161.163 145.612 161.678C146.429 162.192 147.356 162.519 148.323 162.633Z" fill="url(#paint30_linear_0_1)"/>
<g id="Vector_56_2" style="mix-blend-mode:multiply">
<g id="Vector_57_2" style="mix-blend-mode:multiply">
<g id="Vector_58" style="mix-blend-mode:multiply">
<path id="Vector_59" d="M143.566 143.05C142.423 141.166 131.993 140.425 125.789 146.438C123.249 148.947 125.789 158.775 129.581 161.342C133.373 163.908 140.586 162.453 143.007 156.982C145.428 151.513 144.7 144.933 143.566 143.05ZM133.17 161.342C127.566 161.078 123.858 152.047 126.524 147.918C129.86 142.696 140.772 141.29 142.042 144.687C147.358 158.817 137.572 161.547 133.17 161.342Z" fill="#FFB8CB"/>
</g>
</g>
</g>
<g id="Vector_57_2_2" style="mix-blend-mode:multiply">
<g id="Vector_58_2" style="mix-blend-mode:multiply">
<g id="Vector_59_2" style="mix-blend-mode:multiply">
<path id="Vector_60" d="M153.978 141.083C154.824 138.994 166.041 135.129 173.558 139.743C176.698 141.667 175.709 152.533 171.814 156.127C168.276 159.417 160.615 159.516 157.094 154.646C153.572 149.777 153.14 143.173 153.978 141.083ZM168.123 156.868C173.888 155.437 176.589 144.842 173.093 141.347C168.682 136.913 156.551 138.773 155.849 142.375C152.936 157.353 163.594 157.995 168.123 156.868Z" fill="#FFB8CB"/>
</g>
</g>
</g>
<path id="Vector_58_2_2" d="M143.566 142.704C142.423 140.935 131.993 140.236 125.789 145.879C123.249 148.231 125.789 157.394 129.581 159.862C133.373 162.329 140.586 160.897 143.007 155.749C145.428 150.6 144.7 144.473 143.566 142.704ZM133.17 159.845C127.566 159.59 123.858 151.134 126.524 147.269C129.86 142.375 140.772 141.059 142.042 144.234C147.358 157.476 137.572 160.034 133.17 159.845Z" fill="url(#paint31_linear_0_1)"/>
<path id="Vector_59_2_2" d="M153.978 140.861C154.824 138.904 166.041 135.285 173.558 139.612C176.698 141.412 175.709 151.587 171.814 154.951C168.276 158.019 160.615 158.126 157.094 153.578C153.572 149.029 153.14 142.819 153.978 140.861ZM168.123 155.666C173.888 154.326 176.589 144.406 173.093 141.125C168.682 136.971 156.551 138.715 155.849 142.087C152.936 156.111 163.594 156.703 168.123 155.65V155.666Z" fill="url(#paint32_linear_0_1)"/>
<path id="Vector_60_2" d="M144.2 145.451C144.2 145.451 149.788 143.271 154.359 144.99L154.046 142.704C152.384 142.201 150.636 142.031 148.906 142.205C147.175 142.379 145.5 142.893 143.981 143.715L144.2 145.451Z" fill="url(#paint33_linear_0_1)"/>
<path id="Vector_61" d="M176.42 144.234L178.045 148.206L180.084 147.425L177.351 140.196L176.42 144.234Z" fill="url(#paint34_linear_0_1)"/>
<path id="Vector_62" d="M124.942 148.132L122.817 148.799L123.46 151.184L125.044 151.587L124.942 148.132Z" fill="#5143A1"/>
<path id="Vector_63" d="M177.554 144.077L175.412 144.432L174.439 140.475L177.351 140.196L177.554 144.077Z" fill="#5143A1"/>
<g id="Vector_64" style="mix-blend-mode:soft-light">
<g id="Vector_65" style="mix-blend-mode:soft-light">
<g id="Vector_66" style="mix-blend-mode:soft-light">
<path id="Vector_67" d="M156.111 145.92C156.111 145.92 155.358 152.13 161.317 155.132C163.868 155.698 166.53 155.584 169.021 154.803L165.567 145.493L156.111 145.92Z" fill="#5CF1FF"/>
</g>
</g>
</g>
<g id="Vector_65_2" style="mix-blend-mode:soft-light">
<g id="Vector_66_2" style="mix-blend-mode:soft-light">
<g id="Vector_67_2" style="mix-blend-mode:soft-light">
<path id="Vector_68" d="M126.821 149.663C126.821 149.663 126.194 155.864 131.053 158.875C133.137 159.435 135.351 159.319 137.36 158.546L134.55 149.21L126.821 149.663Z" fill="#5CF1FF"/>
</g>
</g>
</g>
<g id="Vector_66_2_2" style="mix-blend-mode:multiply">
<g id="Vector_67_2_2" style="mix-blend-mode:multiply">
<g id="Vector_68_2" style="mix-blend-mode:multiply">
<path id="Vector_69" d="M144.623 148.848C145.918 147.848 147.468 147.208 149.108 146.995C150.747 146.783 152.416 147.004 153.936 147.639L153.394 145.92C151.968 145.292 150.397 145.044 148.84 145.198C147.282 145.353 145.796 145.905 144.53 146.8L144.623 148.848Z" fill="#FEB1C8"/>
</g>
</g>
</g>
<g id="Vector_67_2_2_2" style="mix-blend-mode:multiply">
<g id="Vector_68_2_2" style="mix-blend-mode:multiply">
<g id="Vector_69_2" style="mix-blend-mode:multiply">
<path id="Vector_70" d="M176.377 163.414C176.377 163.414 177.867 163.752 178.248 164.747C178.629 165.743 176.132 166.902 176.132 166.902L176.377 163.414Z" fill="#FEB1C8"/>
</g>
</g>
</g>
<g id="Vector_68_2_2_2" style="mix-blend-mode:multiply">
<g id="Vector_69_2_2" style="mix-blend-mode:multiply">
<g id="Vector_70_2" style="mix-blend-mode:multiply">
<path id="Vector_71" d="M128.667 166.902C128.667 166.902 126.973 168.704 127.219 169.37C127.464 170.035 129.394 170.192 129.394 170.192L128.667 166.902Z" fill="#FEB1C8"/>
</g>
</g>
</g>
<path id="Vector_69_2_2_2" d="M141.026 121.056C145.179 119.93 149.57 119.93 153.724 121.056C161.038 122.866 157.042 126.921 157.042 126.921C157.042 126.921 154.765 118.696 141.026 121.056Z" fill="url(#paint35_linear_0_1)"/>
<g id="Vector_70_2_2" style="mix-blend-mode:soft-light">
<g id="Vector_71_2" style="mix-blend-mode:soft-light">
<g id="Vector_72" style="mix-blend-mode:soft-light">
<path id="Vector_73" d="M158.405 103.644C159.01 103.929 159.473 104.436 159.694 105.053C159.914 105.669 159.873 106.345 159.582 106.934C160.371 106.758 161.189 106.747 161.982 106.905C162.775 107.062 163.525 107.383 164.178 107.847C163.609 107.068 162.83 106.456 161.927 106.078C160.674 105.691 160.564 103.61 160.564 103.61C159.85 103.463 159.113 103.476 158.405 103.644Z" fill="white"/>
</g>
</g>
</g>
<g id="Vector_71_2_2" style="mix-blend-mode:soft-light">
<g id="Vector_72_2" style="mix-blend-mode:soft-light">
<g id="Vector_73_2" style="mix-blend-mode:soft-light">
<path id="Vector_74" d="M158.727 111.737C159.514 112.453 157.364 115.447 157.364 115.447L161.005 116.31C161.005 116.31 159.708 115.085 159.836 114.024C159.963 112.963 161.292 112.551 161.292 112.551L158.727 111.737Z" fill="white"/>
</g>
</g>
</g>
<g id="Vector_72_2_2" style="mix-blend-mode:multiply">
<g id="Vector_73_2_2" style="mix-blend-mode:multiply">
<g id="Vector_74_2" style="mix-blend-mode:multiply">
<path id="Vector_75" d="M137.826 206.842C137.826 206.842 139.468 231.345 154.816 232.29C171.95 233.352 172.864 212.657 170.731 204.325C173.905 216.853 171.103 232.562 155.163 232.9C138.825 233.262 137.826 206.842 137.826 206.842Z" fill="#E392AD"/>
</g>
</g>
</g>
<g id="Vector_73_2_2_2" style="mix-blend-mode:multiply">
<g id="Vector_74_2_2" style="mix-blend-mode:multiply">
<g id="Vector_75_2" style="mix-blend-mode:multiply">
<path id="Vector_76" d="M141.559 202.27C141.559 202.27 141.085 225.521 155.358 225.078C169.097 224.658 168.691 207.238 168.691 207.238L168.851 211.563C168.851 211.563 164.864 229.445 154.122 227.858C143.379 226.27 141.085 208.611 141.559 202.27Z" fill="#E392AD"/>
</g>
</g>
</g>
<path id="Vector_74_2_2_2" style="mix-blend-mode:multiply" d="M142.118 185.104C142.118 185.104 150.286 216.26 152.133 218.004C153.978 219.747 148.882 188.073 148.882 188.073L142.118 185.104Z" fill="url(#paint36_linear_0_1)"/>
<g id="Vector_75_2_2" style="mix-blend-mode:multiply">
<g id="Vector_76_2" style="mix-blend-mode:multiply">
<g id="Vector_77" style="mix-blend-mode:multiply">
<path id="Vector_78" d="M168.055 196.529L169.105 195.623C169.105 195.623 176.47 207.731 179.036 214.87C181.6 222.01 173.55 309.598 173.55 309.598L164.61 309.326C164.61 309.326 174.184 257.723 175.895 237.365C176.886 225.066 174.321 212.742 168.487 201.784L168.055 196.529Z" fill="#E392AD"/>
</g>
</g>
</g>
<g id="Vector_76_2_2" style="mix-blend-mode:multiply">
<g id="Vector_77_2" style="mix-blend-mode:multiply">
<g id="Vector_78_2" style="mix-blend-mode:multiply">
<path id="Vector_79" d="M147.324 309.416C147.324 309.416 134.626 228.417 135.414 217.971C136.201 207.526 141.559 202.27 141.559 202.27L141.475 198.872L137.818 198.091C137.818 198.091 132.848 211.095 132.044 218.037C131.24 224.978 137.826 309.416 137.826 309.416H147.324Z" fill="#E392AD"/>
</g>
</g>
</g>
<path id="Vector_77_2_2" d="M125.847 212.032C125.847 212.032 117.746 220.866 111.33 226.682C111.33 226.682 112.93 230.63 121.488 232.085L114.394 239.883C114.394 239.883 121.59 282.891 130.571 309.696L137.8 309.416C137.8 309.416 131.375 228.088 132.019 218.037C132.662 207.986 137.793 198.091 137.793 198.091C137.793 198.091 132.459 205.14 125.847 212.032Z" fill="url(#paint37_linear_0_1)"/>
<path id="Vector_78_2_2" d="M170.054 195.623C170.054 195.623 179.179 209.557 189.448 212.543L200.85 226.475C200.85 226.475 200.775 231.155 188.424 233.549L196.254 242.596C196.254 242.596 191.115 282.076 179.543 309.219L173.55 309.573C173.55 309.573 182.286 228.968 179.332 216.334C177.639 208.915 174.489 201.883 170.054 195.623Z" fill="url(#paint38_linear_0_1)"/>
<path id="Vector_79_2" style="mix-blend-mode:multiply" d="M137.86 212.032C137.86 212.032 137.395 239.883 152.386 257.122L137.86 212.032Z" fill="url(#paint39_linear_0_1)"/>
<path id="Vector_80" style="mix-blend-mode:multiply" d="M174.439 214.764C174.439 214.764 177.825 235.038 157.508 247.54C157.508 247.54 171.221 233.491 174.439 214.764Z" fill="url(#paint40_linear_0_1)"/>
<g id="Vector_81" style="mix-blend-mode:multiply">
<g id="Vector_82" style="mix-blend-mode:multiply">
<g id="Vector_83" style="mix-blend-mode:multiply">
<path id="Vector_84" d="M64.1945 251.15L66.5393 268.267C66.5393 268.267 80.4479 261.07 80.7188 241.947C80.7188 241.947 78.848 254.836 68.7912 260.963L67.6145 245.376L66.9626 244.315L64.1945 251.15Z" fill="#E392AD"/>
</g>
</g>
</g>
<g id="Vector_82_2" style="mix-blend-mode:multiply">
<g id="Vector_83_2" style="mix-blend-mode:multiply">
<g id="Vector_84_2" style="mix-blend-mode:multiply">
<path id="Vector_85" d="M68.0462 237.358L64.8378 238.064C65.4772 236.256 66.5175 234.605 67.8854 233.229L68.0462 237.358Z" fill="#E392AD"/>
</g>
</g>
</g>
<path id="Vector_83_2_2" style="mix-blend-mode:multiply" d="M84.3674 163.949C83.5208 168.128 81.5146 169.772 81.5146 169.772C81.5146 169.772 79.5929 179.642 79.7538 181.287C72.2196 182.718 61.7395 188.073 59.4877 190.976C57.4222 193.649 59.1068 204.055 59.3861 205.716L57.4899 196.817C56.872 193.065 56.6434 190.492 56.6434 190.492L56 182.776C57.1174 177.792 60.1142 178.574 60.1142 178.574C60.4008 181.562 60.9676 184.519 61.8073 187.407L62.3575 187.045C61.7572 183.867 61.3641 180.656 61.1808 177.43C62.6791 173.227 66.37 174.371 66.37 174.371C67.2758 179.461 68.4525 184.602 68.4525 184.602C67.4367 178.022 68.1308 167.717 68.1308 167.717C69.5191 170.784 73.5317 171.253 73.5317 171.253C72.7275 174.831 73.5317 182.382 73.5317 182.382L74.3783 181.896C74.6746 178.253 75.2248 174.345 75.902 170.612C81.7092 169.46 84.2404 164.27 84.3674 163.949Z" fill="url(#paint41_linear_0_1)"/>
<path id="Vector_84_2_2" d="M68.097 167.725L83.4447 159.845C83.4447 159.845 88.6424 169.443 73.4979 171.253C73.4979 171.253 68.7912 172.24 68.097 167.725Z" fill="url(#paint42_linear_0_1)"/>
<path id="Vector_85_2" d="M62.84 174.748L73.4217 167.774C73.4217 167.774 75.8259 171.064 73.7095 174.157C71.8895 176.796 65.9299 179.321 61.2232 178.269C61.2232 178.31 60.6137 176.451 62.84 174.748Z" fill="url(#paint43_linear_0_1)"/>
<path id="Vector_86" d="M59.8179 178.376L69.1298 177.668C69.1298 177.668 69.4938 182.603 64.6685 183.204C61.8086 183.647 58.8782 183.312 56.2032 182.234C56.1393 181.741 56.1859 181.241 56.34 180.769C56.4939 180.296 56.7516 179.862 57.0952 179.495C57.4388 179.128 57.8601 178.838 58.3302 178.645C58.8002 178.452 59.3078 178.36 59.8179 178.376Z" fill="url(#paint44_linear_0_1)"/>
<path id="Vector_87" d="M78.0099 162.633C75.8682 163.736 79.3136 163.455 80.9981 162.633C81.5298 161.5 82.3773 160.534 83.4447 159.845L78.0099 162.633Z" fill="#FFE4DB"/>
<path id="Vector_88" d="M73.4217 167.774C73.4217 167.774 70.3403 169.715 69.8663 171.59C69.8663 171.59 65.8029 173.622 66.8695 172.297C67.9362 170.974 73.4217 167.774 73.4217 167.774Z" fill="#FFE4DB"/>
<path id="Vector_89" d="M69.1891 177.669C69.1891 177.669 67.242 177.413 65.7182 179.635C65.7182 179.635 62.0782 179.857 62.7215 178.722C63.3649 177.586 69.1891 177.669 69.1891 177.669Z" fill="#FFE4DB"/>
<path id="Vector_90" style="mix-blend-mode:multiply" d="M88.253 206.842C88.253 206.842 77.4512 213.176 74.7846 216.293C73.6152 217.567 72.5429 218.922 71.5762 220.348L79.0596 215.98C79.0596 215.98 82.158 212.543 88.253 206.842Z" fill="url(#paint45_linear_0_1)"/>
<path id="Vector_91" style="mix-blend-mode:multiply" d="M80.7949 193.723C80.7949 193.723 71.3562 195.311 70.8228 205.905C70.8228 205.905 70.772 190.836 80.7272 192.926L80.7949 193.723Z" fill="url(#paint46_linear_0_1)"/>
<path id="Vector_92" style="mix-blend-mode:multiply" opacity="0.5" d="M86.4075 188.115C87.0763 190.006 93.7384 185.104 93.7384 185.104C93.7384 185.104 88.5662 191.93 89.0318 198.634C89.0318 198.634 87.5927 194.423 83.8595 193.954C81.3311 193.772 78.8019 194.298 76.5708 195.468C77.8953 194.705 79.3188 194.119 80.8035 193.723C80.8035 193.723 84.9853 191.355 86.4075 188.115Z" fill="url(#paint47_linear_0_1)"/>
<g id="Vector_93" style="mix-blend-mode:multiply">
<g id="Vector_94" style="mix-blend-mode:multiply">
<g id="Vector_95" style="mix-blend-mode:multiply">
<path id="Vector_96" d="M67.9362 234.997C72.1427 234.326 76.0304 232.4 79.0596 229.486C79.0596 229.486 74.6746 235.465 68.0547 237.358L67.9362 234.997Z" fill="#FEB1C8"/>
</g>
</g>
</g>
<path id="Vector_94_2" style="mix-blend-mode:multiply" opacity="0.8" d="M101.806 233.434C101.806 233.434 109.772 250.213 112.007 268.801C112.007 268.801 113.598 240.91 101.806 223.843V233.434Z" fill="url(#paint48_linear_0_1)"/>
<path id="Vector_95_2" style="mix-blend-mode:multiply" opacity="0.8" d="M86.4922 258.011C86.4922 258.011 96.7522 270.48 97.3958 285.153C97.3958 285.153 100.604 262.863 87.0424 257.146L86.4922 258.011Z" fill="url(#paint49_linear_0_1)"/>
<path id="Vector_96_2" style="mix-blend-mode:multiply" opacity="0.8" d="M56.6603 274.838C56.6603 274.838 70.662 272.971 79.0596 258.636C79.0596 258.636 77.0279 275.151 63.8728 278.112L56.6603 274.838Z" fill="url(#paint50_linear_0_1)"/>
<path id="Vector_97" style="mix-blend-mode:multiply" opacity="0.8" d="M82.7251 245.698C82.7251 245.698 86.0096 265.8 88.253 280.917C90.4963 296.035 89.5397 298.083 89.5397 298.083C89.5397 298.083 90.6486 289.759 89.0571 274.542C87.9394 264.747 85.8182 255.084 82.7251 245.698Z" fill="url(#paint51_linear_0_1)"/>
<g id="Vector_98" style="mix-blend-mode:multiply">
<g id="Vector_99" style="mix-blend-mode:multiply">
<g id="Vector_100" style="mix-blend-mode:multiply">
<path id="Vector_101" d="M112.007 277.692L111.355 263.216C111.355 263.216 116.053 298.79 125.035 309.54L127.93 307.722C127.93 307.722 123.697 287.324 119.99 268.761L130.596 309.696L116.485 309.598C116.485 309.598 113.09 287.464 112.007 277.692Z" fill="#E392AD"/>
</g>
</g>
</g>
<path id="Vector_99_2" style="mix-blend-mode:multiply" opacity="0.8" d="M217.053 221.063C217.053 221.063 206.353 235.778 204.889 253.75C204.889 253.75 208.875 237.752 217.053 229.643V221.063Z" fill="url(#paint52_linear_0_1)"/>
<path id="Vector_100_2" style="mix-blend-mode:multiply" opacity="0.8" d="M212.084 245.698C212.084 245.698 213.684 273.901 210.314 289.8H207.911C207.911 289.8 214.488 268.604 212.084 245.698Z" fill="url(#paint53_linear_0_1)"/>
<path id="Vector_101_2" style="mix-blend-mode:multiply" opacity="0.8" d="M203.475 279.337L204.889 260.972C204.889 260.972 199.733 297.515 191.708 309.161H198.319C198.319 309.161 202.814 292.859 203.475 279.337Z" fill="url(#paint54_linear_0_1)"/>
<path id="Vector_102" style="mix-blend-mode:multiply" opacity="0.8" d="M210.975 292.654C210.975 292.654 215.207 284.108 222.454 282.62C229.701 281.131 243.998 285.087 243.998 285.087C242.767 282.345 240.648 280.068 237.964 278.603C235.279 277.137 232.175 276.563 229.124 276.969C218.001 278.219 216.292 283.549 214.099 286.789C211.906 290.03 210.518 290.475 210.518 290.475L210.975 292.654Z" fill="url(#paint55_linear_0_1)"/>
<path id="Vector_103" style="mix-blend-mode:multiply" opacity="0.8" d="M216.52 286.634C216.52 286.634 222.022 282.521 231.707 283.878C241.391 285.235 243.558 287.168 243.558 287.168C243.558 287.168 228.76 281.854 216.52 286.634Z" fill="url(#paint56_linear_0_1)"/>
<path id="Vector_104" style="mix-blend-mode:multiply" d="M206.59 285.375C206.59 285.375 212.448 262.994 208.816 242.605C208.816 242.605 203.212 247.705 203.475 279.363L206.59 285.375Z" fill="url(#paint57_linear_0_1)"/>
<g id="Vector_105" style="mix-blend-mode:multiply">
<g id="Vector_106" style="mix-blend-mode:multiply">
<g id="Vector_107" style="mix-blend-mode:multiply">
<path id="Vector_108" d="M182.726 309.161C182.726 309.161 192.885 275.711 192.799 247.54C192.799 247.54 189.515 282.85 179.543 309.228L182.726 309.161Z" fill="#E392AD"/>
</g>
</g>
</g>
<path id="Vector_106_2" d="M219.297 289.8L220.422 297.984C220.422 297.984 231.215 299.497 231.351 299.284C231.487 299.069 231.351 288.401 231.351 288.401L219.297 289.8Z" fill="url(#paint58_linear_0_1)"/>
<path id="Vector_107_2" d="M231.436 285.802C216.359 283.516 211.119 293.279 211.119 293.279L213.041 301.644C230.978 312.427 256.976 309.919 256.976 309.919C256.976 309.919 246.513 288.089 231.436 285.802ZM214.006 300.09L213.362 294.94C213.362 294.94 215.055 286.272 230.047 287.538C241.805 288.517 253.86 307.805 253.86 307.805C230.53 311.572 214.006 300.09 214.006 300.09Z" fill="url(#paint59_linear_0_1)"/>
<path id="Vector_108_2" d="M214.615 299.284C214.615 299.284 205.21 303.511 203.39 305.041C203.115 306.077 203.115 307.164 203.39 308.2C203.898 309.483 207.512 309.483 209.672 308.783C211.83 308.084 215.047 302.31 215.047 302.31L214.615 299.284Z" fill="url(#paint60_linear_0_1)"/>
<path id="Vector_109" d="M209.384 310.008C209.384 310.008 212.186 297.671 221.235 293.83C230.285 289.989 242.314 301.38 242.847 310.215L209.384 310.008Z" fill="url(#paint61_linear_0_1)"/>
<g id="Vector_110" style="mix-blend-mode:multiply">
<g id="Vector_111" style="mix-blend-mode:multiply">
<g id="Vector_112" style="mix-blend-mode:multiply">
<path id="Vector_113" d="M210.645 306.184H221.117C221.117 306.184 222.674 297.539 225.501 293.23C225.501 293.23 215.834 292.695 210.645 306.184Z" fill="#E392AD"/>
</g>
</g>
</g>
<g id="Vector_111_2" style="mix-blend-mode:multiply">
<g id="Vector_112_2" style="mix-blend-mode:multiply">
<g id="Vector_113_2" style="mix-blend-mode:multiply">
<path id="Vector_114" d="M214.97 298.683C218.333 297.627 221.934 297.519 225.358 298.371C231.283 299.761 239.902 308.289 240.595 308.66C241.256 308.928 241.946 309.121 242.652 309.235C242.652 309.235 240.273 296.997 230.487 293.772C220.702 290.549 214.97 298.683 214.97 298.683Z" fill="#BFA1BC"/>
</g>
</g>
</g>
<g id="Vector_112_2_2" style="mix-blend-mode:multiply">
<g id="Vector_113_2_2" style="mix-blend-mode:multiply">
<g id="Vector_114_2" style="mix-blend-mode:multiply">
<path id="Vector_115" d="M223.961 306.184C223.961 306.184 224.647 297.358 226.415 293.772C226.415 293.772 231.783 294.53 234.484 296.512L233.891 306.382L223.961 306.184Z" fill="#E392AD"/>
</g>
</g>
</g>
<path id="Vector_113_2_2_2" d="M244.43 300.92C244.43 303.051 243.211 305.855 242.686 306.949L242.466 307.385C239.207 307.854 238.606 305.559 238.606 305.559L239.402 303.914C238.965 304.17 238.464 304.306 237.954 304.306C237.444 304.306 236.943 304.17 236.507 303.914C234.898 303.017 233.645 300.213 233.645 300.213L234.23 297.992C234.015 298.28 233.784 298.554 233.535 298.814C233.345 299.029 233.119 299.21 232.866 299.349C232.282 299.604 227.576 298.411 227.093 297.449C226.884 296.509 226.836 295.542 226.949 294.587C227.042 292.785 227.271 290.845 227.271 290.845L225.485 290.532C224.792 292.019 223.916 293.419 222.878 294.702C222.792 294.784 222.701 294.86 222.606 294.933C220.832 295.894 218.99 296.735 217.095 297.449C214.429 296.504 214.183 294.652 214.352 293.443C214.405 293.04 214.513 292.644 214.674 292.268C216.816 289.356 216.993 285.235 220.422 285.318C223.851 285.399 225.222 287.407 225.222 287.407C225.881 287.641 226.578 287.761 227.28 287.76C228.949 287.346 230.703 287.374 232.359 287.843C234.78 288.665 236.244 291.708 236.244 291.708C236.244 291.708 240.147 293.789 240.841 294.776C241.535 295.763 241.323 298.617 241.323 298.617C242.881 298.996 244.43 300.92 244.43 300.92Z" fill="url(#paint62_linear_0_1)"/>
<g id="Vector_114_2_2" style="mix-blend-mode:multiply">
<g id="Vector_115_2" style="mix-blend-mode:multiply">
<g id="Vector_116" style="mix-blend-mode:multiply">
<path id="Vector_117" d="M188.424 233.549L179.958 228.475C183.081 229.639 185.951 231.36 188.424 233.549Z" fill="#E392AD"/>
</g>
</g>
</g>
<g id="Vector_115_2_2" style="mix-blend-mode:multiply">
<g id="Vector_116_2" style="mix-blend-mode:multiply">
<g id="Vector_117_2" style="mix-blend-mode:multiply">
<path id="Vector_118" d="M121.513 232.085C121.513 232.085 128.192 226.368 132.129 225.505C128.419 227.426 124.87 229.625 121.513 232.085Z" fill="#E392AD"/>
</g>
</g>
</g>
<path id="Vector_116_2_2" d="M108.24 309.919C108.24 309.919 99.6472 274.69 97.1588 248.231C97.1588 248.231 160.013 239.528 207.064 244.472C207.064 244.472 205.032 279.609 199.767 309.91L108.24 309.919Z" fill="url(#paint63_linear_0_1)"/>
<g id="Vector_117_2_2" style="mix-blend-mode:soft-light" opacity="0.5">
<g id="Vector_118_2" style="mix-blend-mode:soft-light">
<g id="Vector_119" style="mix-blend-mode:soft-light">
<path id="Vector_120" d="M157.508 244.537L108.239 309.919H148.323L192.799 244.537C192.799 244.537 171.907 242.975 157.508 244.537Z" fill="white"/>
</g>
</g>
</g>
<path id="Vector_118_2_2" d="M97.1588 248.239L99.0545 245.492C99.0545 245.492 152.386 237.916 204.025 242.703L207.047 244.48C207.047 244.48 146.165 241.79 97.1588 248.239Z" fill="url(#paint64_linear_0_1)"/>
<path id="Vector_119_2" d="M140.873 282.143C140.873 282.143 147.942 270.628 159.641 269.336C159.641 269.336 158.515 276.928 140.873 282.143Z" fill="white"/>
<path id="Vector_120_2" d="M188.424 241.609V244.077L170.054 243.945V241.125C170.054 241.125 183.692 241.33 188.424 241.609Z" fill="white"/>
<path id="Vector_121" d="M104.786 244.777V247.293L118.28 246.034L118.889 243.328C118.889 243.328 108.477 244.324 104.786 244.777Z" fill="white"/>
<g id="Vector_122" style="mix-blend-mode:multiply">
<g id="Vector_123" style="mix-blend-mode:multiply">
<g id="Vector_124" style="mix-blend-mode:multiply">
<path id="Vector_125" d="M106.944 304.367C106.944 304.367 114.351 308.57 152.386 309.244C190.421 309.919 200.401 306.167 200.401 306.167L199.767 309.919H108.239L106.944 304.367Z" fill="#EBC2D4"/>
</g>
</g>
</g>
<g id="Vector_123_2" style="mix-blend-mode:multiply">
<g id="Vector_124_2" style="mix-blend-mode:multiply">
<g id="Vector_125_2" style="mix-blend-mode:multiply">
<path id="Vector_126" d="M222.843 294.793C222.758 294.874 222.667 294.951 222.572 295.023C220.797 295.985 218.956 296.826 217.061 297.539C214.395 296.594 214.15 294.743 214.319 293.534C215.615 294.192 222.031 292.778 222.674 293.09C223.317 293.403 222.843 294.793 222.843 294.793Z" fill="#E392AD"/>
</g>
</g>
</g>
<g id="Vector_124_2_2" style="mix-blend-mode:multiply">
<g id="Vector_125_2_2" style="mix-blend-mode:multiply">
<g id="Vector_126_2" style="mix-blend-mode:multiply">
<path id="Vector_127" d="M234.203 296.849C234.121 297.567 233.881 298.259 233.501 298.881C233.311 299.095 233.086 299.275 232.832 299.415C232.248 299.67 227.542 298.478 227.059 297.515C226.851 296.575 226.802 295.608 226.915 294.652C226.915 294.652 229.455 293.007 231.401 293.789C233.349 294.571 234.203 295.681 234.203 296.849Z" fill="#E392AD"/>
</g>
</g>
</g>
<g id="Vector_125_2_2_2" style="mix-blend-mode:multiply">
<g id="Vector_126_2_2" style="mix-blend-mode:multiply">
<g id="Vector_127_2" style="mix-blend-mode:multiply">
<path id="Vector_128" d="M240.189 301.883C240.146 302.635 239.865 303.356 239.385 303.947C238.948 304.203 238.448 304.339 237.937 304.339C237.427 304.339 236.926 304.203 236.489 303.947C234.881 303.051 233.628 300.245 233.628 300.245C233.9 299.21 235.321 298.724 237.014 299.465C238.22 300.069 239.297 300.889 240.189 301.883Z" fill="#E392AD"/>
</g>
</g>
</g>
<g id="Vector_126_2_2_2" style="mix-blend-mode:multiply">
<g id="Vector_127_2_2" style="mix-blend-mode:multiply">
<g id="Vector_128_2" style="mix-blend-mode:multiply">
<path id="Vector_129" d="M242.669 306.949C242.664 307.033 242.644 307.114 242.605 307.188C242.567 307.264 242.514 307.33 242.449 307.385C239.19 307.854 238.589 305.559 238.589 305.559C238.979 304.737 240.748 304.663 241.712 305.247C242.014 305.421 242.261 305.671 242.43 305.971C242.598 306.27 242.681 306.609 242.669 306.949Z" fill="#E392AD"/>
</g>
</g>
</g>
<g id="Vector_127_2_2_2" style="mix-blend-mode:multiply">
<g id="Vector_128_2_2" style="mix-blend-mode:multiply">
<g id="Vector_129_2" style="mix-blend-mode:multiply">
<path id="Vector_130" d="M203.391 308.232C204.141 308.646 204.98 308.883 205.842 308.923C206.704 308.963 207.564 308.805 208.35 308.463C211.28 307.335 209.104 302.031 209.104 302.031L214.352 299.472C214.352 299.472 210.501 305.189 209.654 308.816C209.654 308.816 204.575 310.222 203.391 308.232Z" fill="#E392AD"/>
</g>
</g>
</g>
<path id="Vector_128_2_2_2" d="M215.047 292.58C216.981 291.869 219.074 291.662 221.117 291.979C221.117 291.979 220.27 289.562 218.086 289.8C215.902 290.039 215.047 292.58 215.047 292.58Z" fill="#FFE4DB"/>
<path id="Vector_129_2_2" d="M229.802 293.016C229.802 293.016 233.256 292.876 234.416 294.661C234.416 294.661 233.375 291.659 231.927 291.782C231.5 291.821 231.089 291.953 230.721 292.166C230.353 292.38 230.039 292.67 229.802 293.016Z" fill="#FFE4DB"/>
<path id="Vector_130_2" d="M236.896 298.485C236.896 298.485 239.503 299.226 240.189 300.903C240.189 300.903 240.189 297.787 238.987 297.515C237.785 297.243 236.896 298.485 236.896 298.485Z" fill="#FFE4DB"/>
<path id="Vector_131" d="M240.637 304.284C240.637 304.284 242.263 304.622 242.695 305.304C242.695 305.304 243.355 303.165 242.314 302.894C241.273 302.622 240.637 304.284 240.637 304.284Z" fill="#FFE4DB"/>
<path id="Vector_132" style="mix-blend-mode:multiply" d="M236.193 291.774C235.743 293.918 235.07 296.013 234.187 298.025C235.749 296.425 236.704 294.357 236.896 292.161L236.193 291.774Z" fill="url(#paint65_linear_0_1)"/>
<path id="Vector_133" style="mix-blend-mode:multiply" d="M241.273 298.683L239.884 303.149C239.884 303.149 242.821 301.816 242.339 299.103L241.273 298.683Z" fill="url(#paint66_linear_0_1)"/>
<g id="Vector_134" style="mix-blend-mode:multiply">
<g id="Vector_135" style="mix-blend-mode:multiply">
<g id="Vector_136" style="mix-blend-mode:multiply">
<path id="Vector_137" d="M223.774 293.567L225.18 287.473L225.781 287.645L225.451 290.582L227.237 290.894L227.008 293.23C227.008 293.23 224.553 293.04 223.774 293.567Z" fill="#E392AD"/>
</g>
</g>
</g>
<g id="Vector_135_2" style="mix-blend-mode:multiply">
<g id="Vector_136_2" style="mix-blend-mode:multiply">
<g id="Vector_137_2" style="mix-blend-mode:multiply">
<path id="Vector_138" d="M188.424 233.549C188.424 233.549 197.168 230.942 200.85 226.475C200.85 226.475 199.217 234.1 189.845 235.145L188.424 233.549Z" fill="#E392AD"/>
</g>
</g>
</g>
<g id="Vector_136_2_2" style="mix-blend-mode:multiply">
<g id="Vector_137_2_2" style="mix-blend-mode:multiply">
<g id="Vector_138_2" style="mix-blend-mode:multiply">
<path id="Vector_139" d="M111.355 226.682C111.355 226.682 110.669 232.068 119.676 234.084L122.461 231.288C118.443 230.605 114.642 229.028 111.355 226.682Z" fill="#E392AD"/>
</g>
</g>
</g>
<path id="Vector_137_2_2_2" style="mix-blend-mode:multiply" opacity="0.5" d="M176.978 204.087C176.978 204.087 181.931 215.051 185.443 218.629C188.956 222.207 198.65 223.802 198.65 223.802L189.448 212.542C189.448 212.542 182.793 210.988 176.978 204.087Z" fill="url(#paint67_linear_0_1)"/>
<path id="Vector_138_2_2" style="mix-blend-mode:multiply" opacity="0.5" d="M135.879 200.542C135.879 200.542 132.121 209.853 129.716 217.486C127.312 225.118 116.899 226.065 116.899 226.065C116.899 226.065 128.167 208.611 135.879 200.542Z" fill="url(#paint68_linear_0_1)"/>
<g id="Vector_139_2" style="mix-blend-mode:multiply">
<g id="Vector_140" style="mix-blend-mode:multiply">
<g id="Vector_141" style="mix-blend-mode:multiply">
<path id="Vector_142" d="M61.8834 213.299L69.189 217.33L67.0811 217.494L62.2559 214.188L61.8834 213.299Z" fill="#FEB1C8"/>
</g>
</g>
</g>
<path id="Vector_140_2" style="mix-blend-mode:multiply" opacity="0.5" d="M63.5511 196.348C65.1341 192.4 75.4026 187.588 77.6967 188.435C79.9908 189.282 79.3389 194.381 79.3389 194.381C79.3389 194.381 73.117 194.991 70.8736 204.342C70.8736 204.342 67.9362 207.328 65.896 205.683C63.8558 204.038 63.5511 196.348 63.5511 196.348Z" fill="url(#paint69_linear_0_1)"/>
<g id="Vector_141_2" style="mix-blend-mode:soft-light" opacity="0.2">
<g id="Vector_142_2" style="mix-blend-mode:soft-light">
<g id="Vector_143" style="mix-blend-mode:soft-light">
<path id="Vector_144" d="M217.053 229.643C219.318 239.023 222.355 248.213 226.136 257.122C232.689 272.873 249.111 286.46 249.111 286.46C249.111 286.46 230.505 248.963 217.053 229.643Z" fill="white"/>
</g>
</g>
</g>
<g id="Vector_142_2_2" style="mix-blend-mode:soft-light" opacity="0.2">
<g id="Vector_143_2" style="mix-blend-mode:soft-light">
<g id="Vector_144_2" style="mix-blend-mode:soft-light">
<path id="Vector_145" d="M192.799 213.941C194.547 216.491 196.676 218.776 199.115 220.718C202.645 223.309 213.337 226.475 213.337 226.475L217.053 221.063C212.626 219.181 208.059 217.628 203.391 216.417C196.635 214.772 192.799 213.941 192.799 213.941Z" fill="white"/>
</g>
</g>
</g>
<g id="Vector_143_2_2" style="mix-blend-mode:soft-light" opacity="0.2">
<g id="Vector_144_2_2" style="mix-blend-mode:soft-light">
<g id="Vector_145_2" style="mix-blend-mode:soft-light">
<path id="Vector_146" d="M101.806 223.802C103.202 226.068 104.469 228.408 105.598 230.81C105.598 230.81 110.365 226.327 113.353 223.309C115.075 221.603 116.504 219.64 117.585 217.494C112.726 219.123 104.481 221.483 101.806 223.802Z" fill="white"/>
</g>
</g>
</g>
<path id="Vector_144_2_2_2" style="mix-blend-mode:multiply" d="M156.322 134.594C157.652 133.569 159.18 132.812 160.817 132.37C162.452 131.927 164.163 131.809 165.846 132.02C162.55 132.373 159.333 133.242 156.322 134.594Z" fill="url(#paint70_linear_0_1)"/>
<path id="Vector_145_2_2" style="mix-blend-mode:multiply" d="M158.109 134.594C158.109 134.594 164.695 132.522 168.673 134.355C165.186 133.583 161.556 133.665 158.109 134.594Z" fill="url(#paint71_linear_0_1)"/>
<path id="Vector_146_2" style="mix-blend-mode:multiply" d="M141.026 136.872C141.026 136.872 137.707 133.377 134.617 133.764L141.026 136.872Z" fill="url(#paint72_linear_0_1)"/>
<path id="Vector_147" style="mix-blend-mode:multiply" d="M140.018 137.004C140.018 137.004 135.159 133.475 131.053 136.05C131.053 136.05 134.617 134.405 140.018 137.004Z" fill="url(#paint73_linear_0_1)"/>
<path id="Vector_148" style="mix-blend-mode:multiply" d="M74.5815 171.105C74.5919 169.9 74.1833 168.725 73.4217 167.774C73.9739 168.129 74.4343 168.604 74.7676 169.16C75.1008 169.716 75.2978 170.339 75.3434 170.981L74.5815 171.105Z" fill="url(#paint74_linear_0_1)"/>
<path id="Vector_149" style="mix-blend-mode:multiply" d="M68.3764 177.661L61.2231 178.31C61.2231 178.31 63.5596 177.347 68.3764 177.661Z" fill="url(#paint75_linear_0_1)"/>
</g>
<path id="escritorio" d="M338.614 309.919H0V317H338.614V309.919Z" fill="url(#paint76_linear_0_1)"/>
</g>
</g>
</g>
</g>
</g>
</g>
</g>
<defs>
<linearGradient id="paint0_linear_0_1" x1="150.414" y1="188.468" x2="150.414" y2="116.31" gradientUnits="userSpaceOnUse">
<stop stop-color="#FFB595"/>
<stop offset="0.98" stop-color="#FFC2A9"/>
</linearGradient>
<linearGradient id="paint1_linear_0_1" x1="155.087" y1="231.303" x2="155.087" y2="182.389" gradientUnits="userSpaceOnUse">
<stop offset="0.02" stop-color="#FFA67F"/>
<stop offset="1" stop-color="#FF8B7C"/>
</linearGradient>
<linearGradient id="paint2_linear_0_1" x1="151.531" y1="142.844" x2="151.531" y2="118.489" gradientUnits="userSpaceOnUse">
<stop offset="0.02" stop-color="white"/>
<stop offset="0.99" stop-color="#F29DC8"/>
</linearGradient>
<linearGradient id="paint3_linear_0_1" x1="180.127" y1="166.902" x2="180.127" y2="146.998" gradientUnits="userSpaceOnUse">
<stop offset="0.02" stop-color="#FFA67F"/>
<stop offset="1" stop-color="#FF8B7C"/>
</linearGradient>
<linearGradient id="paint4_linear_0_1" x1="124.942" y1="170.151" x2="124.942" y2="152.089" gradientUnits="userSpaceOnUse">
<stop offset="0.02" stop-color="#FFA67F"/>
<stop offset="1" stop-color="#FF8B7C"/>
</linearGradient>
<linearGradient id="paint5_linear_0_1" x1="180.084" y1="162.814" x2="180.084" y2="150.814" gradientUnits="userSpaceOnUse">
<stop offset="0.02" stop-color="white"/>
<stop offset="0.99" stop-color="#F29DC8"/>
</linearGradient>
<linearGradient id="paint6_linear_0_1" x1="125.035" y1="166.326" x2="125.035" y2="155.757" gradientUnits="userSpaceOnUse">
<stop offset="0.02" stop-color="white"/>
<stop offset="0.99" stop-color="#F29DC8"/>
</linearGradient>
<linearGradient id="paint7_linear_0_1" x1="153.749" y1="155.659" x2="145.755" y2="103.712" gradientUnits="userSpaceOnUse">
<stop stop-color="#3E2987"/>
<stop offset="0.57" stop-color="#2C2F90"/>
<stop offset="1" stop-color="#243294"/>
</linearGradient>
<linearGradient id="paint8_linear_0_1" x1="155.163" y1="309.59" x2="155.163" y2="201.776" gradientUnits="userSpaceOnUse">
<stop stop-color="#FF6686"/>
<stop offset="1" stop-color="#FF7C89"/>
</linearGradient>
<linearGradient id="paint9_linear_0_1" x1="159.429" y1="309.59" x2="159.429" y2="195.623" gradientUnits="userSpaceOnUse">
<stop stop-color="#2B2583"/>
<stop offset="1" stop-color="#482C97"/>
</linearGradient>
<linearGradient id="paint10_linear_0_1" x1="85.5356" y1="309.919" x2="85.5356" y2="223.802" gradientUnits="userSpaceOnUse">
<stop stop-color="#26258A"/>
<stop offset="1" stop-color="#3C2C95"/>
</linearGradient>
<linearGradient id="paint11_linear_0_1" x1="77.6967" y1="237.358" x2="77.6967" y2="151.406" gradientUnits="userSpaceOnUse">
<stop offset="0.02" stop-color="#FFC2A0"/>
<stop offset="1" stop-color="#FFA195"/>
</linearGradient>
<linearGradient id="paint12_linear_0_1" x1="72.4651" y1="266.82" x2="72.4651" y2="227.323" gradientUnits="userSpaceOnUse">
<stop stop-color="#FF6686"/>
<stop offset="1" stop-color="#FF7C89"/>
</linearGradient>
<linearGradient id="paint13_linear_0_1" x1="230.183" y1="309.919" x2="230.183" y2="221.063" gradientUnits="userSpaceOnUse">
<stop stop-color="#26258A"/>
<stop offset="1" stop-color="#3C2C95"/>
</linearGradient>
<linearGradient id="paint14_linear_0_1" x1="153.614" y1="132.094" x2="156.026" y2="132.094" gradientUnits="userSpaceOnUse">
<stop stop-color="#8453B8"/>
<stop offset="0.23" stop-color="#7755BA"/>
<stop offset="0.7" stop-color="#6157BC"/>
<stop offset="1" stop-color="#5958BD"/>
</linearGradient>
<linearGradient id="paint15_linear_0_1" x1="149.373" y1="157.172" x2="149.373" y2="134.594" gradientUnits="userSpaceOnUse">
<stop offset="0.02" stop-color="white"/>
<stop offset="0.99" stop-color="#F29DC8"/>
</linearGradient>
<linearGradient id="paint16_linear_0_1" x1="130.343" y1="147.269" x2="141.652" y2="147.269" gradientUnits="userSpaceOnUse">
<stop offset="0.02" stop-color="white"/>
<stop offset="0.99" stop-color="#EA9DC8"/>
</linearGradient>
<linearGradient id="paint17_linear_0_1" x1="156.704" y1="144.077" x2="167.878" y2="144.077" gradientUnits="userSpaceOnUse">
<stop offset="0.02" stop-color="white"/>
<stop offset="0.99" stop-color="#EA9DC8"/>
</linearGradient>
<linearGradient id="paint18_linear_0_1" x1="154.122" y1="157.468" x2="158.389" y2="157.468" gradientUnits="userSpaceOnUse">
<stop offset="0.02" stop-color="white"/>
<stop offset="0.99" stop-color="#EA9DC8"/>
</linearGradient>
<linearGradient id="paint19_linear_0_1" x1="160.911" y1="164.747" x2="165.821" y2="164.747" gradientUnits="userSpaceOnUse">
<stop offset="0.02" stop-color="white"/>
<stop offset="0.99" stop-color="#F29DC8"/>
</linearGradient>
<linearGradient id="paint20_linear_0_1" x1="153.292" y1="176.517" x2="153.292" y2="172.528" gradientUnits="userSpaceOnUse">
<stop offset="0.02" stop-color="white"/>
<stop offset="0.99" stop-color="#F29DC8"/>
</linearGradient>
<linearGradient id="paint21_linear_0_1" x1="162.511" y1="148.692" x2="162.511" y2="144.497" gradientUnits="userSpaceOnUse">
<stop offset="0.02" stop-color="#E0B3D1"/>
<stop offset="0.99" stop-color="#C2798B"/>
</linearGradient>
<linearGradient id="paint22_linear_0_1" x1="136.531" y1="152.393" x2="136.531" y2="148.199" gradientUnits="userSpaceOnUse">
<stop offset="0.02" stop-color="#E0B3D1"/>
<stop offset="0.99" stop-color="#C2798B"/>
</linearGradient>
<linearGradient id="paint23_linear_0_1" x1="162.173" y1="137.39" x2="162.173" y2="129.446" gradientUnits="userSpaceOnUse">
<stop stop-color="#B877B8"/>
<stop offset="0.23" stop-color="#9A6DBA"/>
<stop offset="0.56" stop-color="#7762BB"/>
<stop offset="0.83" stop-color="#615BBD"/>
<stop offset="1" stop-color="#5958BD"/>
</linearGradient>
<linearGradient id="paint24_linear_0_1" x1="134.575" y1="140.656" x2="134.575" y2="131.74" gradientUnits="userSpaceOnUse">
<stop stop-color="#B877B8"/>
<stop offset="0.23" stop-color="#9A6DBA"/>
<stop offset="0.56" stop-color="#7762BB"/>
<stop offset="0.83" stop-color="#615BBD"/>
<stop offset="1" stop-color="#5958BD"/>
</linearGradient>
<linearGradient id="paint25_linear_0_1" x1="169.105" y1="133.072" x2="180.618" y2="133.072" gradientUnits="userSpaceOnUse">
<stop offset="0.02" stop-color="white"/>
<stop offset="0.99" stop-color="#C2798B"/>
</linearGradient>
<linearGradient id="paint26_linear_0_1" x1="121.174" y1="135.31" x2="132.087" y2="135.31" gradientUnits="userSpaceOnUse">
<stop offset="0.01" stop-color="#C2798B"/>
<stop offset="0.98" stop-color="white"/>
</linearGradient>
<linearGradient id="paint27_linear_0_1" x1="120.497" y1="127.085" x2="133.085" y2="127.085" gradientUnits="userSpaceOnUse">
<stop offset="0.01" stop-color="#C2798B"/>
<stop offset="0.98" stop-color="white"/>
</linearGradient>
<linearGradient id="paint28_linear_0_1" x1="155.383" y1="125.489" x2="153.287" y2="111.875" gradientUnits="userSpaceOnUse">
<stop stop-color="#3E2987"/>
<stop offset="0.57" stop-color="#2C2F90"/>
<stop offset="1" stop-color="#243294"/>
</linearGradient>
<linearGradient id="paint29_linear_0_1" x1="177.874" y1="129.406" x2="178.45" y2="120.123" gradientUnits="userSpaceOnUse">
<stop stop-color="#3E2987"/>
<stop offset="0.57" stop-color="#2C2F90"/>
<stop offset="1" stop-color="#243294"/>
</linearGradient>
<linearGradient id="paint30_linear_0_1" x1="143.607" y1="160.766" x2="148.323" y2="160.766" gradientUnits="userSpaceOnUse">
<stop offset="0.02" stop-color="white"/>
<stop offset="0.99" stop-color="#D172A6"/>
</linearGradient>
<linearGradient id="paint31_linear_0_1" x1="134.702" y1="161.004" x2="134.702" y2="141.438" gradientUnits="userSpaceOnUse">
<stop stop-color="#26258A"/>
<stop offset="1" stop-color="#3C2C95"/>
</linearGradient>
<linearGradient id="paint32_linear_0_1" x1="167.075" y1="156.982" x2="163.39" y2="137.452" gradientUnits="userSpaceOnUse">
<stop stop-color="#26258A"/>
<stop offset="1" stop-color="#3C2C95"/>
</linearGradient>
<linearGradient id="paint33_linear_0_1" x1="149.204" y1="145.451" x2="149.204" y2="142.144" gradientUnits="userSpaceOnUse">
<stop stop-color="#26258A"/>
<stop offset="1" stop-color="#3C2C95"/>
</linearGradient>
<linearGradient id="paint34_linear_0_1" x1="178.248" y1="148.199" x2="178.248" y2="140.196" gradientUnits="userSpaceOnUse">
<stop stop-color="#26258A"/>
<stop offset="1" stop-color="#3C2C95"/>
</linearGradient>
<linearGradient id="paint35_linear_0_1" x1="150.422" y1="127.899" x2="149.15" y2="119.638" gradientUnits="userSpaceOnUse">
<stop stop-color="#3E2987"/>
<stop offset="0.57" stop-color="#2C2F90"/>
<stop offset="1" stop-color="#243294"/>
</linearGradient>
<linearGradient id="paint36_linear_0_1" x1="147.324" y1="218.037" x2="147.324" y2="185.104" gradientUnits="userSpaceOnUse">
<stop offset="0.02" stop-color="white"/>
<stop offset="0.99" stop-color="#F29DC8"/>
</linearGradient>
<linearGradient id="paint37_linear_0_1" x1="124.587" y1="309.696" x2="124.587" y2="198.091" gradientUnits="userSpaceOnUse">
<stop stop-color="#38328A"/>
<stop offset="1" stop-color="#5C43A2"/>
</linearGradient>
<linearGradient id="paint38_linear_0_1" x1="185.452" y1="309.59" x2="185.452" y2="195.623" gradientUnits="userSpaceOnUse">
<stop stop-color="#38328A"/>
<stop offset="1" stop-color="#5C43A2"/>
</linearGradient>
<linearGradient id="paint39_linear_0_1" x1="145.123" y1="257.122" x2="145.123" y2="212.032" gradientUnits="userSpaceOnUse">
<stop offset="0.02" stop-color="white"/>
<stop offset="0.99" stop-color="#EA8CC1"/>
</linearGradient>
<linearGradient id="paint40_linear_0_1" x1="166.075" y1="247.54" x2="166.075" y2="214.764" gradientUnits="userSpaceOnUse">
<stop offset="0.02" stop-color="white"/>
<stop offset="0.99" stop-color="#EA8CC1"/>
</linearGradient>
<linearGradient id="paint41_linear_0_1" x1="70.2049" y1="205.683" x2="70.2049" y2="163.949" gradientUnits="userSpaceOnUse">
<stop offset="0.01" stop-color="#EA9DC8"/>
<stop offset="0.98" stop-color="#FFDBD6"/>
</linearGradient>
<linearGradient id="paint42_linear_0_1" x1="76.1984" y1="171.351" x2="76.1984" y2="159.845" gradientUnits="userSpaceOnUse">
<stop stop-color="#FFB595"/>
<stop offset="0.98" stop-color="#FFC290"/>
</linearGradient>
<linearGradient id="paint43_linear_0_1" x1="67.86" y1="178.541" x2="67.86" y2="167.774" gradientUnits="userSpaceOnUse">
<stop stop-color="#FFB595"/>
<stop offset="0.98" stop-color="#FFC290"/>
</linearGradient>
<linearGradient id="paint44_linear_0_1" x1="62.73" y1="183.352" x2="62.73" y2="177.668" gradientUnits="userSpaceOnUse">
<stop stop-color="#FFB595"/>
<stop offset="0.98" stop-color="#FFC290"/>
</linearGradient>
<linearGradient id="paint45_linear_0_1" x1="79.9146" y1="220.348" x2="79.9146" y2="206.842" gradientUnits="userSpaceOnUse">
<stop offset="0.02" stop-color="white"/>
<stop offset="0.99" stop-color="#EA9DC8"/>
</linearGradient>
<linearGradient id="paint46_linear_0_1" x1="75.8089" y1="205.905" x2="75.8089" y2="192.729" gradientUnits="userSpaceOnUse">
<stop offset="0.02" stop-color="white"/>
<stop offset="0.99" stop-color="#EA9DC8"/>
</linearGradient>
<linearGradient id="paint47_linear_0_1" x1="85.1546" y1="198.634" x2="85.1546" y2="185.104" gradientUnits="userSpaceOnUse">
<stop offset="0.01" stop-color="#EA9DC8"/>
<stop offset="0.98" stop-color="white"/>
</linearGradient>
<linearGradient id="paint48_linear_0_1" x1="101.806" y1="246.282" x2="112.074" y2="246.282" gradientUnits="userSpaceOnUse">
<stop offset="0.01" stop-color="#C2798B"/>
<stop offset="0.98" stop-color="white"/>
</linearGradient>
<linearGradient id="paint49_linear_0_1" x1="92.1132" y1="285.128" x2="92.1132" y2="257.122" gradientUnits="userSpaceOnUse">
<stop offset="0.02" stop-color="white"/>
<stop offset="0.99" stop-color="#C2798B"/>
</linearGradient>
<linearGradient id="paint50_linear_0_1" x1="56.6603" y1="268.374" x2="79.0596" y2="268.374" gradientUnits="userSpaceOnUse">
<stop offset="0.01" stop-color="#C2798B"/>
<stop offset="0.98" stop-color="white"/>
</linearGradient>
<linearGradient id="paint51_linear_0_1" x1="86.3144" y1="298.058" x2="86.3144" y2="245.698" gradientUnits="userSpaceOnUse">
<stop offset="0.02" stop-color="white"/>
<stop offset="0.99" stop-color="#C2798B"/>
</linearGradient>
<linearGradient id="paint52_linear_0_1" x1="204.889" y1="237.406" x2="217.053" y2="237.406" gradientUnits="userSpaceOnUse">
<stop offset="0.02" stop-color="white"/>
<stop offset="0.99" stop-color="#C2798B"/>
</linearGradient>
<linearGradient id="paint53_linear_0_1" x1="207.911" y1="267.748" x2="212.609" y2="267.748" gradientUnits="userSpaceOnUse">
<stop offset="0.01" stop-color="#C2798B"/>
<stop offset="0.98" stop-color="white"/>
</linearGradient>
<linearGradient id="paint54_linear_0_1" x1="191.708" y1="285.063" x2="204.889" y2="285.063" gradientUnits="userSpaceOnUse">
<stop offset="0.01" stop-color="#C2798B"/>
<stop offset="0.98" stop-color="white"/>
</linearGradient>
<linearGradient id="paint55_linear_0_1" x1="210.475" y1="284.75" x2="243.998" y2="284.75" gradientUnits="userSpaceOnUse">
<stop offset="0.01" stop-color="#C2798B"/>
<stop offset="0.98" stop-color="white"/>
</linearGradient>
<linearGradient id="paint56_linear_0_1" x1="216.52" y1="285.375" x2="243.575" y2="285.375" gradientUnits="userSpaceOnUse">
<stop offset="0.01" stop-color="#C2798B"/>
<stop offset="0.98" stop-color="white"/>
</linearGradient>
<linearGradient id="paint57_linear_0_1" x1="206.734" y1="285.375" x2="206.734" y2="242.58" gradientUnits="userSpaceOnUse">
<stop offset="0.01" stop-color="#C2798B"/>
<stop offset="0.98" stop-color="white"/>
</linearGradient>
<linearGradient id="paint58_linear_0_1" x1="225.358" y1="299.308" x2="225.358" y2="288.401" gradientUnits="userSpaceOnUse">
<stop offset="0.02" stop-color="#FFA67F"/>
<stop offset="1" stop-color="#FF8B7C"/>
</linearGradient>
<linearGradient id="paint59_linear_0_1" x1="234.043" y1="310.174" x2="234.043" y2="285.457" gradientUnits="userSpaceOnUse">
<stop stop-color="#2B2583"/>
<stop offset="1" stop-color="#231868"/>
</linearGradient>
<linearGradient id="paint60_linear_0_1" x1="209.104" y1="309.285" x2="209.104" y2="299.284" gradientUnits="userSpaceOnUse">
<stop offset="0.02" stop-color="#FFC2A0"/>
<stop offset="1" stop-color="#FFA195"/>
</linearGradient>
<linearGradient id="paint61_linear_0_1" x1="226.136" y1="310.215" x2="226.136" y2="293.065" gradientUnits="userSpaceOnUse">
<stop stop-color="#C50B79"/>
<stop offset="1" stop-color="#E51160"/>
</linearGradient>
<linearGradient id="paint62_linear_0_1" x1="229.353" y1="307.467" x2="229.353" y2="285.383" gradientUnits="userSpaceOnUse">
<stop offset="0.02" stop-color="#FFC2A0"/>
<stop offset="1" stop-color="#FFA195"/>
</linearGradient>
<linearGradient id="paint63_linear_0_1" x1="152.108" y1="309.919" x2="152.108" y2="242.967" gradientUnits="userSpaceOnUse">
<stop stop-color="#C9B6E9"/>
<stop offset="1" stop-color="#BBABD1"/>
</linearGradient>
<linearGradient id="paint64_linear_0_1" x1="152.108" y1="248.239" x2="152.108" y2="241.116" gradientUnits="userSpaceOnUse">
<stop stop-color="#D8CAEF"/>
<stop offset="1" stop-color="#EADEF4"/>
</linearGradient>
<linearGradient id="paint65_linear_0_1" x1="235.541" y1="298.025" x2="235.541" y2="291.774" gradientUnits="userSpaceOnUse">
<stop offset="0.02" stop-color="white"/>
<stop offset="0.99" stop-color="#EA9DC8"/>
</linearGradient>
<linearGradient id="paint66_linear_0_1" x1="241.145" y1="303.149" x2="241.145" y2="298.683" gradientUnits="userSpaceOnUse">
<stop offset="0.02" stop-color="white"/>
<stop offset="0.99" stop-color="#EA9DC8"/>
</linearGradient>
<linearGradient id="paint67_linear_0_1" x1="187.822" y1="223.802" x2="187.822" y2="204.087" gradientUnits="userSpaceOnUse">
<stop offset="0.02" stop-color="white"/>
<stop offset="0.99" stop-color="#C2798B"/>
</linearGradient>
<linearGradient id="paint68_linear_0_1" x1="126.389" y1="226.065" x2="126.389" y2="200.542" gradientUnits="userSpaceOnUse">
<stop offset="0.02" stop-color="white"/>
<stop offset="0.99" stop-color="#C2798B"/>
</linearGradient>
<linearGradient id="paint69_linear_0_1" x1="71.4916" y1="206.177" x2="71.4916" y2="188.337" gradientUnits="userSpaceOnUse">
<stop offset="0.02" stop-color="white"/>
<stop offset="0.99" stop-color="#F29DC8"/>
</linearGradient>
<linearGradient id="paint70_linear_0_1" x1="156.34" y1="133.253" x2="165.863" y2="133.253" gradientUnits="userSpaceOnUse">
<stop offset="0.01" stop-color="#F29DC8"/>
<stop offset="0.98" stop-color="white"/>
</linearGradient>
<linearGradient id="paint71_linear_0_1" x1="158.109" y1="134.093" x2="168.673" y2="134.093" gradientUnits="userSpaceOnUse">
<stop offset="0.01" stop-color="#F29DC8"/>
<stop offset="0.98" stop-color="white"/>
</linearGradient>
<linearGradient id="paint72_linear_0_1" x1="134.617" y1="135.261" x2="141.026" y2="135.261" gradientUnits="userSpaceOnUse">
<stop offset="0.02" stop-color="white"/>
<stop offset="0.99" stop-color="#F29DC8"/>
</linearGradient>
<linearGradient id="paint73_linear_0_1" x1="131.053" y1="136.067" x2="140.018" y2="136.067" gradientUnits="userSpaceOnUse">
<stop offset="0.02" stop-color="white"/>
<stop offset="0.99" stop-color="#F29DC8"/>
</linearGradient>
<linearGradient id="paint74_linear_0_1" x1="74.3783" y1="171.105" x2="74.3783" y2="167.774" gradientUnits="userSpaceOnUse">
<stop offset="0.01" stop-color="#EA9DC8"/>
<stop offset="0.98" stop-color="#FFDBD6"/>
</linearGradient>
<linearGradient id="paint75_linear_0_1" x1="64.7955" y1="178.31" x2="64.7955" y2="177.602" gradientUnits="userSpaceOnUse">
<stop offset="0.01" stop-color="#EA9DC8"/>
<stop offset="0.98" stop-color="#FFDBD6"/>
</linearGradient>
<linearGradient id="paint76_linear_0_1" x1="169.307" y1="317" x2="169.307" y2="309.919" gradientUnits="userSpaceOnUse">
<stop stop-color="#1E1D1F"/>
<stop offset="0.557292" stop-color="#1E1D1F"/>
</linearGradient>
<clipPath id="clip0_0_1">
<rect width="388" height="317" fill="white" transform="translate(-25)"/>
</clipPath>
<clipPath id="clip1_0_1">
<rect width="339" height="329" fill="white" transform="translate(0 -12)"/>
</clipPath>
</defs>
</svg>
