<?xml version="1.0" standalone="no"?>
<!DOCTYPE svg PUBLIC "-//W3C//DTD SVG 20010904//EN"
 "http://www.w3.org/TR/2001/REC-SVG-20010904/DTD/svg10.dtd">
<svg version="1.0" xmlns="http://www.w3.org/2000/svg"
 width="700.000000pt" height="350.000000pt" viewBox="0 0 700.000000 350.000000"
 preserveAspectRatio="xMidYMid meet">
<metadata>
Created by potrace 1.16, written by Peter Selinger 2001-2019
</metadata>
<g transform="translate(0.000000,350.000000) scale(0.100000,-0.100000)"
fill="#000000" stroke="none">
<path d="M4196 3444 c-8 -22 2 -33 14 -14 6 10 10 -76 10 -231 0 -220 -2 -254
-20 -313 -23 -72 -69 -141 -133 -198 -23 -20 -39 -39 -35 -43 9 -9 138 122
138 141 0 8 4 14 9 14 5 0 12 14 16 30 4 17 10 30 15 30 18 0 31 173 28 380
-3 189 -5 215 -19 218 -9 2 -19 -5 -23 -14z"/>
<path d="M4193 2520 c-3 -11 -9 -20 -13 -20 -5 0 -13 -12 -19 -27 -12 -34 -42
-84 -57 -98 -6 -5 -17 -20 -25 -31 -8 -12 -34 -38 -59 -58 -25 -20 -51 -41
-57 -46 -7 -6 -13 -8 -13 -5 0 4 -7 -1 -16 -10 -34 -34 -4 -24 52 18 74 54
128 115 178 201 21 37 43 69 48 72 5 3 8 -261 6 -623 l-3 -628 -31 -65 c-40
-81 -105 -158 -166 -195 -27 -16 -48 -33 -48 -37 0 -22 30 -2 121 80 58 53
109 126 109 156 0 9 4 16 9 16 25 0 31 149 31 723 l0 597 -21 0 c-12 0 -23 -8
-26 -20z"/>
<path d="M3356 2210 c-359 -239 -375 -255 -457 -472 -23 -62 -48 -117 -56
-121 -18 -11 -17 -37 2 -37 9 0 20 17 27 45 7 25 16 45 20 45 4 0 8 7 8 16 0
9 6 30 14 47 7 18 24 61 37 96 13 35 30 66 37 68 6 3 12 11 12 19 0 8 17 30
38 49 20 19 44 42 53 50 9 8 19 15 23 15 6 0 17 8 49 36 7 6 35 23 62 39 28
16 52 32 55 35 13 14 70 50 80 50 5 0 10 3 10 8 0 4 30 25 66 47 36 22 71 45
78 50 6 6 29 22 51 35 44 26 70 49 64 55 -3 2 -125 -77 -273 -175z"/>
<path d="M3711 1669 c-167 -117 -212 -167 -255 -280 -18 -47 -26 -59 -31 -47
-4 10 -5 98 -3 196 2 147 1 176 -10 161 -9 -13 -12 -67 -10 -211 3 -185 4
-193 23 -193 15 0 22 10 29 43 5 23 12 42 16 42 4 0 11 16 14 35 4 19 11 35
17 35 6 0 7 5 4 10 -3 6 -1 10 4 10 6 0 11 5 11 12 0 16 98 109 145 138 22 13
46 30 53 37 7 7 17 13 21 13 4 0 19 9 32 21 l24 21 6 -89 5 -88 2 98 c1 53 -1
97 -5 96 -5 0 -46 -27 -92 -60z"/>
</g>
</svg>
